<?xml version="1.0" encoding="UTF-8"?><svg xmlns="http://www.w3.org/2000/svg" width="256" height="82.136"><path fill="#c9d200" d="M256 82.136V0H0v82.136z"/><path d="M246.916 9.084v63.967H9.084V9.084h237.832z" fill="#fff"/><path fill="#c9d200" d="M139.046 4.414h9.085v59.592h-9.085z"/><path d="M118.468 44.358c.724-.789 2.507-2.702 4.237-2.702 1.282 0 2.286.62 2.62.62.223 0 .39-.338.447-.506l1.728-4.727c.055-.113.112-.337.112-.563 0-.732-1.618-1.293-3.235-1.293-3.79 0-5.852 3.15-6.913 4.446-.279-1.913-1.393-4.446-2.064-4.446-.222 0-.501.169-.724.225l-4.237 1.743c-.279.114-.501.28-.501.506 0 1.294 1.448 2.306 1.448 8.496V63.15c0 .618.112.787.781.787h5.52c.669 0 .78-.169.78-.787zm66.537-6.971c.057-.112.223-.562.28-.956 0-.45-.392-.506-1.227-.62l-3.793-.506c-.167 0-.78-.057-.891-.057-.445 0-.613.506-.78 1.126l-3.792 12.66c-.669 2.193-1.56 6.133-1.895 8.158h-.112c-.334-2.082-1.17-5.908-1.784-8.159l-3.4-12.659c-.168-.563-.337-1.126-.782-1.126-.11 0-.724.057-.891.057l-4.627.506c-.838.114-1.227.169-1.227.62.055.394.222.844.279.956l8.865 25.938c.224.62.28.732 1.058.732h4.573c.781 0 .836-.114 1.059-.732zm19.651-1.328c0-.62-.112-.789-.78-.789h-10.593c-.67 0-.781.17-.781.789v3.657c0 .62.11.787.78.787h4.293v22.743c0 .62.112.788.78.788h5.52c.67 0 .781-.168.781-.788zm1.004-9.116c0-2.588-2.062-4.613-4.573-4.613-2.564 0-4.628 2.025-4.628 4.613 0 2.587 2.064 4.67 4.628 4.67 2.509 0 4.573-2.082 4.573-4.67zm28.868 11.344c.112-.225.278-.563.278-.732 0-1.293-5.295-2.756-8.697-2.756-6.022 0-9.869 4.05-9.869 9.17 0 3.263 1.618 5.232 3.29 6.358 3.68 2.476 9.144 2.476 9.144 5.739 0 2.025-1.56 2.813-3.4 2.813-3.456 0-7.75-2.476-7.972-2.476-.222 0-.334.226-.446.506l-1.226 3.207c-.057.225-.28.563-.28.731 0 1.52 6.356 3.656 10.48 3.656 5.912 0 9.536-3.881 9.536-9.057 0-3.263-1.56-5.402-3.736-6.865-3.958-2.643-8.976-2.42-8.976-5.457 0-1.913 1.561-2.701 3.679-2.701 3.567 0 6.3 1.463 6.467 1.463.057 0 .335-.224.447-.506z"/><path fill="#c9d200" d="M96.182 4.807h1.576v59.075h-1.576z"/><path d="M85.34 37.272c.057-.112.223-.562.28-.956 0-.45-.39-.506-1.226-.62l-3.79-.506c-.168 0-.782-.057-.894-.057-.445 0-.613.506-.78 1.126l-3.79 12.66c-.67 2.193-1.562 6.131-1.896 8.158h-.114c-.336-2.084-1.17-5.908-1.784-8.159L67.944 36.26c-.166-.563-.335-1.126-.78-1.126-.112 0-.724.057-.893.057l-4.626.506c-.838.112-1.226.169-1.226.62.055.394.222.844.28.956l8.864 25.938c.222.62.28.732 1.059.732h4.57c.782 0 .839-.112 1.06-.732z"/></svg>