<?xml version="1.0" encoding="UTF-8"?>
<!DOCTYPE svg PUBLIC "-//W3C//DTD SVG 1.1//EN" "http://www.w3.org/Graphics/SVG/1.1/DTD/svg11.dtd">
<svg xmlns="http://www.w3.org/2000/svg" width="410px" height="210px" viewBox="0 0 410 210" xmlns:xlink="http://www.w3.org/1999/xlink">
  <path fill="#0F62AC" d="M237.962 71.2101 l33.4643 0 0 -17.6174 -0.113386 0c-0.0767719,-11.9693 -4.4008,-22.9595 -11.5359,-31.5403 -0.00354332,-0.00354332 -0.00708664,-0.00944886 -0.0118111,-0.0141733 -2.03505,-2.44489 -4.29923,-4.69726 -6.75829,-6.71695 -0.00236221,-0.00236221 -0.00708664,-0.00472443 -0.00944886,-0.00708664 -0.304726,-0.250395 -0.611813,-0.496065 -0.922444,-0.739373 -0.00944886,-0.00590553 -0.0177166,-0.0129922 -0.0259844,-0.0200788 -0.305907,-0.238584 -0.614176,-0.474805 -0.924807,-0.706302 -0.00708664,-0.00590553 -0.0165355,-0.0118111 -0.0236221,-0.0165355 -0.312993,-0.233859 -0.62953,-0.462994 -0.948429,-0.688585 0,-0.00118111 -0.00118111,-0.00118111 -0.00118111,-0.00118111 -0.323623,-0.229135 -0.648428,-0.455907 -0.977957,-0.676774 -0.0200788,-0.0129922 -0.0401576,-0.0259844 -0.0602365,-0.0401576 -1.63938,-1.09961 -3.34726,-2.10709 -5.11537,-3.01064 -0.0118111,-0.00590553 -0.0236221,-0.0118111 -0.0366143,-0.0177166 -0.70394,-0.359056 -1.41851,-0.702759 -2.14135,-1.02993 -0.00590553,-0.00236221 -0.0118111,-0.00472443 -0.0177166,-0.00826775 -0.359056,-0.160631 -0.716932,-0.318899 -1.07835,-0.472443 -0.00472443,-0.00118111 -0.00944886,-0.00354332 -0.0129922,-0.00590553 -0.349608,-0.146457 -0.701577,-0.289371 -1.05473,-0.429923 -0.00708664,-0.00236221 -0.0141733,-0.00590553 -0.0212599,-0.00826775 -0.265749,-0.105119 -0.535041,-0.205513 -0.803153,-0.307088 -0.112205,-0.0413387 -0.223229,-0.0850397 -0.335434,-0.126378 -0.238584,-0.0874019 -0.478348,-0.171261 -0.719294,-0.255119 -0.146457,-0.0507876 -0.292915,-0.105119 -0.441734,-0.154725 -0.155906,-0.0531498 -0.314174,-0.101575 -0.470081,-0.153544 -0.237402,-0.0779531 -0.473624,-0.157087 -0.712207,-0.231497 -0.0767719,-0.0236221 -0.153544,-0.0448821 -0.230316,-0.0685042 -0.314174,-0.0956697 -0.62953,-0.191339 -0.947248,-0.281103 -0.00236221,0 -0.00354332,-0.00118111 -0.00590553,-0.00118111 -0.376773,-0.107481 -0.75709,-0.211418 -1.13859,-0.30945 -0.00472443,-0.00118111 -0.01063,-0.00236221 -0.0165355,-0.00354332 -0.179528,-0.0472443 -0.361419,-0.0897641 -0.543309,-0.133465 -0.225591,-0.055512 -0.452364,-0.113386 -0.680318,-0.166536 -0.00118111,0 -0.00236221,0 -0.00354332,0 -0.387403,-0.0909452 -0.778349,-0.175985 -1.1693,-0.2563 -0.0129922,-0.00236221 -0.0259844,-0.00472443 -0.0389765,-0.00826775 -0.392127,-0.0803153 -0.786617,-0.155906 -1.18229,-0.226773 -0.0118111,-0.00236221 -0.0236221,-0.00354332 -0.0354332,-0.00590553 -0.398033,-0.0720475 -0.797247,-0.13819 -1.19764,-0.199607 -0.00944886,-0.00118111 -0.0200788,-0.00236221 -0.0295277,-0.00472443 -0.402757,-0.0614176 -0.806696,-0.118111 -1.213,-0.170079 -0.00826775,-0.00118111 -0.0165355,-0.00236221 -0.0248032,-0.00354332 -0.408663,-0.0507876 -0.817326,-0.0980319 -1.22835,-0.140552 -0.00590553,0 -0.0129922,-0.00118111 -0.0188977,-0.00236221 -0.412206,-0.0413387 -0.826775,-0.0779531 -1.24134,-0.109843 -0.00472443,0 -0.00944886,0 -0.0153544,-0.00118111 -0.41575,-0.0318899 -0.835043,-0.0590553 -1.25434,-0.0803153 -0.00354332,0 -0.00708664,0 -0.00944886,0 -0.421655,-0.0212599 -0.845673,-0.0377954 -1.26851,-0.0484254 -0.00236221,0 -0.00354332,0 -0.00472443,0 -0.42638,-0.01063 -0.85394,-0.0165355 -1.2815,-0.0165355 -27.5092,0 -49.9443,22.4351 -49.9443,49.9443 0,0 0,0.389765 0,0.389765l0.0295277 0 0 33.4549 -50.4569 0.190158 -0.0259844 68.1251 -0.00354332 0.00236221c-0.243308,8.89137 -7.66302,16.0631 -16.6111,16.0631 -8.94688,0 -16.2709,-7.17522 -16.5142,-16.0654l-0.00708664 0 0 -0.455907 0 -68.0684 -27.9344 0 0 -0.0401576 -54.9085 0 0 33.5907 49.551 0 0 34.9738 -0.00236221 0.00708664c0,27.5092 22.4021,49.9372 49.91,49.9372 0.428742,0 0.855121,-0.00590553 1.28032,-0.0165355 0.00236221,0 0.00472443,0 0.00590553,0 0.424017,-0.0118111 0.846854,-0.0271655 1.26733,-0.0484254 0.00354332,0 0.00708664,-0.00118111 0.01063,-0.00118111 0.419293,-0.0212599 0.836224,-0.0484254 1.25315,-0.0803153 0.00590553,0 0.01063,0 0.0165355,-0.00118111 0.414569,-0.0318899 0.827956,-0.0673231 1.23898,-0.109843 0.00708664,0 0.0141733,-0.00118111 0.022441,-0.00236221 0.103937,-0.01063 0.207875,-0.0236221 0.310631,-0.0354332 0.314174,-0.0342521 0.62953,-0.0685042 0.941342,-0.108662 0.40512,-0.0507876 0.807877,-0.107481 1.20945,-0.168898 0.01063,-0.00236221 0.022441,-0.00354332 0.033071,-0.00472443 0.399214,-0.0614176 0.798428,-0.128741 1.1941,-0.199607 0.00472443,0 0.00826775,-0.00118111 0.0118111,-0.00236221 0.22441,-0.0401576 0.446458,-0.0850397 0.669688,-0.12756 0.178347,-0.0342521 0.357875,-0.066142 0.535041,-0.102756 0.0153544,-0.00236221 0.0295277,-0.00590553 0.0448821,-0.00826775 0.388584,-0.0803153 0.777168,-0.165355 1.16339,-0.255119 0.00708664,-0.00118111 0.0141733,-0.00236221 0.0212599,-0.00472443 0.183072,-0.0425198 0.364962,-0.0897641 0.548034,-0.133465 0.219686,-0.0543309 0.439372,-0.1063 0.659058,-0.161812 0.141733,-0.0366143 0.283466,-0.0767719 0.424017,-0.114567 0.2563,-0.0685042 0.5126,-0.135827 0.766538,-0.207875 0.157087,-0.0448821 0.311812,-0.0933074 0.467718,-0.139371 0.231497,-0.0685042 0.462994,-0.134646 0.694491,-0.206694 0.226773,-0.0708664 0.451183,-0.146457 0.676774,-0.220867 0.160631,-0.0519687 0.322442,-0.102756 0.483073,-0.157087 0.220867,-0.0744097 0.439372,-0.153544 0.657877,-0.230316 0.165355,-0.0590553 0.329529,-0.114567 0.493703,-0.174804 0.239765,-0.0874019 0.478348,-0.180709 0.716932,-0.272836 0.13819,-0.0519687 0.276379,-0.103937 0.413387,-0.157087 0.259844,-0.102756 0.517325,-0.210237 0.774806,-0.316537 0.114567,-0.0472443 0.230316,-0.0921263 0.343702,-0.140552 0.262206,-0.111024 0.522049,-0.225591 0.781893,-0.34134 0.111024,-0.0484254 0.222048,-0.0956697 0.331891,-0.145276 0.26693,-0.120473 0.530317,-0.244489 0.794885,-0.369686 0.0980319,-0.0472443 0.197245,-0.0921263 0.294096,-0.139371 0.268111,-0.128741 0.53386,-0.262206 0.798428,-0.39449 0.0956697,-0.0484254 0.19252,-0.0956697 0.287009,-0.144095 0.291733,-0.148819 0.578742,-0.301182 0.866932,-0.455907 0.0614176,-0.033071 0.125197,-0.0649609 0.186615,-0.0980319 0.300001,-0.162993 0.598821,-0.33071 0.895279,-0.499608 0.0519687,-0.0295277 0.105119,-0.0590553 0.157087,-0.0874019 0.29882,-0.172442 0.595278,-0.347245 0.890555,-0.524411 0.0472443,-0.0283466 0.0944886,-0.055512 0.141733,-0.0838586 0.649609,-0.39449 1.28977,-0.803153 1.92048,-1.22599 0.0318899,-0.0212599 0.066142,-0.0425198 0.0980319,-0.0649609 0.315356,-0.211418 0.625987,-0.427561 0.935437,-0.646065 0.0141733,-0.00944886 0.0295277,-0.0200788 0.043701,-0.0295277 0.300001,-0.21378 0.598821,-0.429923 0.894098,-0.648428 0.0259844,-0.0200788 0.0519687,-0.0377954 0.0791342,-0.0578742 0.261025,-0.194883 0.519687,-0.393309 0.777168,-0.592916 0.0637798,-0.0496065 0.12756,-0.0968508 0.190158,-0.146457 0.268111,-0.209056 0.532679,-0.422836 0.794885,-0.637798 0.0413387,-0.033071 0.0826775,-0.066142 0.124016,-0.099213 0.916539,-0.752365 1.80473,-1.5378 2.66458,-2.35158 0.00354332,-0.00354332 0.00826775,-0.00708664 0.0118111,-0.00944886 0.284647,-0.270473 0.56575,-0.543309 0.844491,-0.820869 0.00354332,-0.00236221 0.00708664,-0.00708664 0.01063,-0.01063 0.836224,-0.829137 1.64292,-1.69016 2.41891,-2.57718 0.0129922,-0.0141733 0.0248032,-0.0283466 0.0377954,-0.0413387 0.233859,-0.269292 0.465356,-0.540947 0.69331,-0.813783 0.0295277,-0.0354332 0.0602365,-0.0696853 0.0897641,-0.105119 0.24567,-0.296458 0.487797,-0.596459 0.727562,-0.897641 0.00472443,-0.00472443 0.00944886,-0.01063 0.0141733,-0.0165355 0.225591,-0.284647 0.44764,-0.572837 0.667325,-0.863389 0.0248032,-0.0318899 0.0496065,-0.0637798 0.0744097,-0.0968508 2.63505,-3.49135 4.82246,-7.33822 6.47601,-11.452 0.00236221,-0.00590553 0.00590553,-0.01063 0.00708664,-0.0165355 2.25946,-5.62443 3.77364,-11.7532 3.82088,-18.1583l0.00354332 0.00354332 0 -35.3009 16.8072 0 0 83.2787 33.2234 0 0 -83.2787 66.7585 0 0 83.0318 33.43 0 0 -83.0318 100.132 0 0 -33.3863 -100.132 0 0 -33.5363c-0.00118111,-0.00118111 -0.00118111,-0.00118111 -0.00118111,-0.00118111 0,-9.12169 7.48704,-16.6182 16.6099,-16.6182 9.12169,0 16.5804,7.57326 16.5804,16.6961 -0.00236221,0 0.00708664,-0.00708664 0.00118111,-0.0118111l0 16.8048 33.397 0 0.0448821 -16.8048 -0.0177166 0c0,-27.5092 -22.4363,-49.9455 -49.9455,-49.9455 -0.42638,0 -0.852759,0.00590553 -1.27796,0.0165355 -0.00236221,0 -0.00590553,0.00118111 -0.00826775,0.00118111 -0.422836,0.01063 -0.84331,0.0259844 -1.2626,0.0472443 -0.00472443,0 -0.01063,0.00118111 -0.0141733,0.00118111 -0.418112,0.0200788 -0.833861,0.0472443 -1.24843,0.0791342 -0.00826775,0 -0.0141733,0.00118111 -0.022441,0.00118111 -0.411025,0.0318899 -0.82205,0.0673231 -1.23189,0.108662 -0.00944886,0.00118111 -0.0188977,0.00118111 -0.0283466,0.00236221 -0.407482,0.0413387 -0.812602,0.0862208 -1.21654,0.13819 -0.0118111,0.00118111 -0.0248032,0.00236221 -0.0366143,0.00472443 -0.400395,0.0519687 -0.80079,0.1063 -1.19882,0.166536 -0.00236221,0.00118111 -0.00354332,0.00118111 -0.00590553,0.00118111 -0.232678,0.0354332 -0.464175,0.0755908 -0.695672,0.114567 -0.185434,0.0307088 -0.370868,0.0578742 -0.55512,0.0909452 -0.13819,0.0248032 -0.275198,0.0531498 -0.414569,0.0791342 -0.270473,0.0507876 -0.540947,0.100394 -0.809058,0.154725 -0.102756,0.0200788 -0.204331,0.0448821 -0.307088,0.066142 -0.305907,0.0637798 -0.611813,0.128741 -0.916539,0.199607 -0.055512,0.0129922 -0.111024,0.0271655 -0.167717,0.0401576 -0.337797,0.0791342 -0.675593,0.159449 -1.01221,0.24567 -0.126378,0.0318899 -0.250395,0.0685042 -0.376773,0.101575 -0.27756,0.0732286 -0.55512,0.146457 -0.830318,0.22441 -0.0673231,0.0177166 -0.132284,0.0389765 -0.198426,0.0578742 -0.318899,0.0921263 -0.636617,0.184253 -0.951972,0.282285 -0.283466,0.0874019 -0.56575,0.179528 -0.846854,0.271655 -0.0933074,0.0307088 -0.188977,0.0602365 -0.281103,0.0909452 -0.257481,0.0874019 -0.511419,0.177166 -0.766538,0.26693 -0.135827,0.0472443 -0.272836,0.0944886 -0.407482,0.144095 -0.190158,0.0685042 -0.379135,0.141733 -0.570475,0.21378 -0.19252,0.0732286 -0.385041,0.142914 -0.57638,0.218505 -0.179528,0.0696853 -0.355513,0.142914 -0.53386,0.214961 -0.194883,0.0791342 -0.390946,0.157087 -0.584648,0.238584 -0.173623,0.0732286 -0.347245,0.150001 -0.520868,0.22441 -0.200788,0.0874019 -0.401576,0.173623 -0.602365,0.263387 -0.133465,0.0602365 -0.265749,0.122835 -0.399214,0.184253 -0.23504,0.107481 -0.470081,0.214961 -0.70394,0.327167 -0.164174,0.0791342 -0.327167,0.161812 -0.49134,0.242127 -0.186615,0.0909452 -0.37323,0.18189 -0.557482,0.276379 -0.229135,0.114567 -0.454726,0.23504 -0.680318,0.354332 -0.126378,0.066142 -0.253938,0.129922 -0.379135,0.198426 -0.238584,0.128741 -0.474805,0.261025 -0.711026,0.393309 -0.113386,0.0637798 -0.227954,0.126378 -0.340159,0.190158 -0.311812,0.175985 -0.6189,0.356694 -0.925988,0.540947 -0.0236221,0.0141733 -0.0484254,0.0271655 -0.0720475,0.0425198 -0.322442,0.193702 -0.642522,0.390946 -0.959059,0.591735 -0.0200788,0.0118111 -0.0401576,0.0248032 -0.0602365,0.0366143 -0.321261,0.204331 -0.64016,0.411025 -0.956697,0.622443 -0.0141733,0.00826775 -0.0271655,0.0188977 -0.0413387,0.0271655 -0.317718,0.212599 -0.631892,0.428742 -0.943704,0.647247 -0.0141733,0.00944886 -0.0283466,0.0177166 -0.0425198,0.0283466 -0.29882,0.210237 -0.596459,0.425198 -0.891736,0.642522 -0.0271655,0.0188977 -0.0543309,0.0389765 -0.0814964,0.0590553 -0.287009,0.212599 -0.571656,0.428742 -0.85394,0.646065 -0.033071,0.0259844 -0.0673231,0.0507876 -0.100394,0.0779531 -0.276379,0.214961 -0.550396,0.432285 -0.82205,0.653152 -0.0366143,0.0295277 -0.0744097,0.0578742 -0.109843,0.0874019 -1.22008,0.993311 -2.39056,2.04331 -3.50907,3.14647 -0.00708664,0.00590553 -0.0129922,0.0129922 -0.0200788,0.0188977 -1.12205,1.10788 -2.19332,2.26773 -3.20789,3.476 -0.00590553,0.00708664 -0.0118111,0.0141733 -0.0188977,0.0212599 -0.248032,0.297639 -0.493703,0.59764 -0.73583,0.900003 -0.00590553,0.00708664 -0.0118111,0.0153544 -0.0177166,0.022441 -0.237402,0.297639 -0.471262,0.598821 -0.701577,0.901185 -0.0118111,0.0141733 -0.022441,0.0271655 -0.033071,0.0413387 -0.229135,0.301182 -0.453545,0.604727 -0.675593,0.910633 -0.0118111,0.0165355 -0.0236221,0.033071 -0.0354332,0.0484254 -0.220867,0.305907 -0.439372,0.615357 -0.654333,0.92835 -0.01063,0.0153544 -0.0212599,0.0295277 -0.0318899,0.0448821 -0.209056,0.303544 -0.413387,0.609451 -0.615357,0.91772 -0.0177166,0.0271655 -0.0366143,0.0543309 -0.0543309,0.0826775 -1.71733,2.63387 -3.19135,5.439 -4.39136,8.38704 -0.0165355,0.0413387 -0.0354332,0.0826775 -0.0507876,0.124016 -0.134646,0.33071 -0.263387,0.664963 -0.390946,1.0004 -0.0153544,0.0401576 -0.0307088,0.0803153 -0.0460632,0.121654 -0.137008,0.3626 -0.269292,0.728743 -0.398033,1.09607 -0.00118111,0.00354332 -0.00236221,0.00826775 -0.00354332,0.0129922 -0.132284,0.375592 -0.257481,0.753546 -0.379135,1.13386 -0.00236221,0.00708664 -0.00590553,0.0141733 -0.00826775,0.0212599 -0.120473,0.377954 -0.238584,0.758271 -0.349608,1.13977 -0.00354332,0.00826775 -0.00590553,0.0177166 -0.00826775,0.0259844 -0.113386,0.386222 -0.222048,0.773625 -0.327167,1.16339 0,0.00236221 -0.00118111,0.00472443 -0.00118111,0.00708664 -0.209056,0.781893 -0.399214,1.57087 -0.569294,2.36694 -0.00236221,0.00944886 -0.00472443,0.0177166 -0.00590553,0.0271655 -0.0838586,0.388584 -0.162993,0.780712 -0.236221,1.17284 -0.00354332,0.0141733 -0.00590553,0.0283466 -0.00826775,0.0425198 -0.0732286,0.388584 -0.141733,0.778349 -0.205513,1.17048 -0.00354332,0.0177166 -0.00590553,0.0366143 -0.00944886,0.0543309 -0.0602365,0.37323 -0.115748,0.748822 -0.168898,1.12441 -0.00590553,0.043701 -0.0118111,0.0874019 -0.0188977,0.131103 -0.0519687,0.386222 -0.099213,0.771263 -0.141733,1.15867 -0.00236221,0.0188977 -0.00590553,0.0377954 -0.00708664,0.0578742 -0.0413387,0.37323 -0.0779531,0.74646 -0.111024,1.12205 -0.00472443,0.055512 -0.01063,0.111024 -0.0141733,0.166536 -0.033071,0.382679 -0.0602365,0.767719 -0.0838586,1.15276 -0.00118111,0.0236221 -0.00236221,0.0460632 -0.00472443,0.0696853 -0.0236221,0.401576 -0.0425198,0.804334 -0.0566931,1.20709 -0.00118111,0.0188977 -0.00118111,0.0377954 -0.00236221,0.0566931 -0.0141733,0.407482 -0.022441,0.816145 -0.0271655,1.22717 0,0.00826775 0,0.0177166 0,0.0271655l-0.160631 0 0 34.1458 -66.7585 0 -0.00118111 -33.7147c0,0 0.00118111,0.00118111 0.00118111,0 0,-9.12878 7.56499,-16.7009 16.7032,-16.7009 9.13941,0 16.5934,7.4457 16.5934,16.5745 0,0.243308 -0.00590553,0.485435 -0.0165355,0.726381l0 16.5603z"/>
</svg>
