<?xml version="1.0" encoding="UTF-8"?>
<svg xmlns="http://www.w3.org/2000/svg" xmlns:xlink="http://www.w3.org/1999/xlink" width="163pt" height="326pt" viewBox="0 0 163 326" version="1.1">
<g id="surface1">
<path style=" stroke:none;fill-rule:evenodd;fill:rgb(13.699341%,12.199402%,12.5%);fill-opacity:1;" d="M 81.957031 82.988281 C 61.550781 82.988281 39.554688 84.789063 19.710938 89.875 C 21.449219 124.480469 19.753906 194.058594 34.183594 212.71875 C 32.390625 213.039063 30.589844 213.378906 28.796875 213.742188 C 18.375 194.882813 17.199219 147.832031 16.277344 111.597656 C 16.039063 102.027344 15.820313 93.214844 15.480469 85.871094 L 15.441406 85.816406 L 15.480469 85.800781 C 37.160156 80.25 59.738281 78.167969 81.957031 78.171875 C 104.175781 78.171875 126.746094 80.246094 148.421875 85.800781 L 148.472656 85.816406 L 148.46875 85.871094 C 148.101563 93.214844 147.878906 102.027344 147.636719 111.597656 C 146.722656 147.832031 145.53125 194.882813 135.148438 213.742188 C 133.332031 213.378906 131.523438 213.039063 129.71875 212.71875 C 144.171875 194.058594 142.464844 124.480469 144.199219 89.875 C 124.351563 84.789063 102.363281 82.988281 81.957031 82.988281 "/>
<path style=" stroke:none;fill-rule:evenodd;fill:rgb(66.273499%,1.960754%,19.999695%);fill-opacity:1;" d="M 7.683594 221.035156 C 59.503906 208.195313 115.390625 211.230469 156.316406 221.035156 L 153.796875 237 C 156.714844 237.589844 159.765625 238.273438 162.859375 239.054688 L 158.683594 261.160156 C 153.246094 259.59375 136.601563 256.339844 130.5 255.988281 L 150.886719 249.894531 L 150.886719 249.511719 C 110.808594 240.234375 60.28125 237.871094 12.511719 249.648438 L 12.511719 249.894531 L 33.03125 255.980469 C 27.039063 256.292969 10.191406 259.582031 4.714844 261.160156 L 0.539063 239.054688 C 3.84375 238.21875 7.09375 237.5 10.1875 236.882813 Z M 20.179688 239.933594 L 14.507813 228.992188 L 16.816406 228.53125 L 21.210938 236.996094 L 22.671875 227.371094 L 24.226563 227.0625 L 22.347656 239.5 Z M 27.519531 238.386719 L 26.050781 226.617188 L 28.222656 226.273438 L 29.691406 238.042969 Z M 32.359375 237.425781 L 31.074219 225.628906 L 34.992188 225.085938 C 35.792969 224.976563 36.414063 225.007813 36.859375 225.171875 C 37.300781 225.34375 37.671875 225.640625 37.964844 226.066406 C 38.257813 226.492188 38.433594 226.992188 38.5 227.570313 C 38.574219 228.261719 38.46875 228.9375 38.179688 229.601563 C 37.894531 230.261719 37.449219 230.800781 36.835938 231.214844 L 40.859375 236.246094 L 38.207031 236.613281 L 35.082031 232.15625 L 33.886719 232.320313 L 34.410156 237.140625 Z M 33.710938 230.703125 L 34.207031 230.632813 C 35.105469 230.507813 35.703125 230.203125 35.996094 229.714844 C 36.289063 229.226563 36.40625 228.703125 36.34375 228.144531 C 36.292969 227.660156 36.109375 227.296875 35.800781 227.050781 C 35.492188 226.804688 34.914063 226.742188 34.058594 226.859375 L 33.300781 226.964844 Z M 44.890625 235.738281 L 44.097656 225.523438 L 40.335938 225.894531 L 40.210938 224.273438 L 49.925781 223.3125 L 50.050781 224.9375 L 46.289063 225.308594 L 47.085938 235.523438 Z M 51.535156 223.1875 L 53.722656 223.015625 L 54.175781 230.277344 C 54.257813 231.589844 54.511719 232.445313 54.929688 232.84375 C 55.355469 233.238281 55.878906 233.410156 56.511719 233.363281 C 57.128906 233.3125 57.613281 233.0625 57.953125 232.613281 C 58.292969 232.160156 58.425781 231.332031 58.351563 230.125 L 57.890625 222.6875 L 59.792969 222.535156 L 60.246094 229.816406 C 60.332031 231.191406 60.238281 232.1875 59.972656 232.804688 C 59.703125 233.421875 59.289063 233.929688 58.734375 234.316406 C 58.175781 234.703125 57.457031 234.929688 56.570313 235 C 55.695313 235.070313 54.941406 234.96875 54.292969 234.703125 C 53.648438 234.429688 53.125 234 52.722656 233.398438 C 52.316406 232.800781 52.074219 231.816406 51.988281 230.445313 Z M 62.511719 234.019531 L 62.445313 231.980469 C 63.28125 232.332031 63.902344 232.539063 64.3125 232.597656 C 64.71875 232.65625 65.09375 232.679688 65.433594 232.664063 C 66.050781 232.640625 66.503906 232.464844 66.796875 232.144531 C 67.09375 231.824219 67.230469 231.445313 67.21875 231.011719 C 67.207031 230.679688 67.113281 230.386719 66.933594 230.125 C 66.757813 229.867188 66.332031 229.542969 65.660156 229.152344 L 64.9375 228.742188 C 63.898438 228.144531 63.195313 227.582031 62.820313 227.058594 C 62.441406 226.53125 62.238281 225.914063 62.214844 225.199219 C 62.1875 224.308594 62.46875 223.53125 63.054688 222.871094 C 63.640625 222.210938 64.5 221.859375 65.640625 221.8125 C 66.488281 221.78125 67.445313 221.878906 68.519531 222.109375 L 68.578125 224.011719 C 67.476563 223.601563 66.601563 223.40625 65.964844 223.433594 C 65.433594 223.453125 65.035156 223.597656 64.765625 223.867188 C 64.496094 224.140625 64.367188 224.453125 64.378906 224.820313 C 64.386719 225.097656 64.480469 225.351563 64.65625 225.585938 C 64.824219 225.820313 65.25 226.136719 65.921875 226.523438 L 66.699219 226.96875 C 67.886719 227.65625 68.648438 228.261719 68.984375 228.789063 C 69.316406 229.324219 69.492188 229.929688 69.515625 230.609375 C 69.546875 231.585938 69.242188 232.425781 68.605469 233.144531 C 67.96875 233.859375 66.933594 234.246094 65.496094 234.300781 C 64.644531 234.335938 63.648438 234.242188 62.511719 234.019531 Z M 76.101563 233.632813 L 75.917969 221.75 L 78.109375 221.707031 L 78.292969 233.589844 Z M 80.9375 233.660156 L 80.9375 221.773438 L 83.839844 221.773438 L 86.382813 230.132813 L 89 221.773438 L 91.550781 221.773438 L 91.550781 233.660156 L 89.527344 233.660156 L 89.527344 224.691406 L 86.953125 232.863281 L 85.1875 232.863281 L 82.664063 224.570313 L 82.664063 233.660156 Z M 94.183594 233.875 L 94.550781 221.996094 L 98.175781 222.140625 C 99.230469 222.183594 99.96875 222.335938 100.386719 222.601563 C 100.808594 222.867188 101.121094 223.234375 101.324219 223.695313 C 101.527344 224.160156 101.617188 224.738281 101.597656 225.425781 C 101.554688 226.753906 101.152344 227.75 100.390625 228.414063 C 99.625 229.082031 98.621094 229.390625 97.371094 229.339844 L 96.476563 229.304688 L 96.332031 233.960938 Z M 96.527344 227.675781 L 96.941406 227.691406 C 97.746094 227.722656 98.347656 227.527344 98.738281 227.109375 C 99.128906 226.6875 99.335938 226.183594 99.351563 225.59375 C 99.363281 225.261719 99.3125 224.960938 99.199219 224.6875 C 99.089844 224.410156 98.914063 224.191406 98.667969 224.023438 C 98.421875 223.859375 98.027344 223.769531 97.476563 223.746094 L 96.652344 223.714844 Z M 101.976563 234.328125 L 106.625 222.699219 L 108.824219 222.832031 L 112.363281 234.941406 L 110.113281 234.804688 L 109.167969 231.574219 L 104.8125 231.320313 L 103.574219 234.421875 Z M 105.433594 229.773438 L 108.699219 229.964844 L 107.285156 225.136719 Z M 116.476563 235.375 L 113.511719 223.152344 L 115.84375 223.382813 L 118.144531 232.839844 L 121.765625 223.96875 L 123.339844 224.121094 L 118.671875 235.589844 Z M 123.921875 236.445313 L 125.023438 224.628906 L 127.203125 224.886719 L 126.101563 236.703125 Z M 128.753906 236.988281 L 130.21875 225.222656 L 134.714844 225.933594 C 135.917969 226.125 136.828125 226.488281 137.441406 227.03125 C 138.0625 227.570313 138.511719 228.296875 138.804688 229.207031 C 139.097656 230.113281 139.167969 231.167969 139.019531 232.363281 C 138.871094 233.535156 138.554688 234.554688 138.058594 235.414063 C 137.566406 236.277344 136.925781 236.917969 136.132813 237.339844 C 135.339844 237.757813 134.316406 237.871094 133.054688 237.671875 Z M 131.132813 235.664063 L 132.753906 235.921875 C 133.601563 236.054688 134.269531 236.007813 134.753906 235.785156 C 135.242188 235.558594 135.660156 235.113281 136.007813 234.445313 C 136.359375 233.78125 136.585938 233.011719 136.695313 232.140625 C 136.796875 231.3125 136.761719 230.554688 136.589844 229.875 C 136.414063 229.191406 136.125 228.648438 135.71875 228.246094 C 135.308594 227.84375 134.570313 227.558594 133.503906 227.390625 L 132.191406 227.179688 Z M 139.03125 238.785156 L 144.730469 227.769531 L 146.90625 228.160156 L 149.308594 240.617188 L 147.082031 240.222656 L 146.4375 236.894531 L 142.132813 236.128906 L 140.609375 239.066406 Z M 142.890625 234.660156 L 146.121094 235.238281 L 145.164063 230.269531 Z M 142.890625 234.660156 "/>
<path style=" stroke:none;fill-rule:evenodd;fill:rgb(66.273499%,1.960754%,19.999695%);fill-opacity:1;" d="M 40.652344 52.191406 C 36.96875 52.21875 25.246094 49.867188 25.183594 41.371094 C 25.160156 38.140625 27.632813 35.105469 29.101563 32.320313 C 38.171875 19.011719 43.292969 12.914063 36.875 0.5 C 38.867188 0.882813 41.914063 3.9375 43.488281 6.175781 C 46.273438 11.414063 46.535156 16.875 44.75 22.933594 C 42.867188 27.976563 36.710938 34.277344 38.648438 40.0625 C 40.453125 45.472656 46.769531 45.898438 44.714844 40.21875 C 43.65625 37.285156 42.347656 36.996094 43.171875 33.609375 C 44.503906 28.160156 50.921875 21.253906 48.109375 14.691406 C 54.578125 18.730469 50.609375 29.738281 51.21875 31.660156 C 51.558594 33.257813 56.554688 38.113281 56.183594 41.40625 C 55.269531 49.480469 46.703125 52.558594 40.652344 52.191406 "/>
<path style=" stroke:none;fill-rule:evenodd;fill:rgb(66.273499%,1.960754%,19.999695%);fill-opacity:1;" d="M 81.914063 52.191406 C 78.234375 52.21875 66.507813 49.867188 66.445313 41.371094 C 66.421875 38.140625 68.894531 35.105469 70.367188 32.320313 C 79.4375 19.011719 84.554688 12.914063 78.136719 0.5 C 80.132813 0.882813 83.175781 3.9375 84.753906 6.175781 C 87.535156 11.414063 87.800781 16.875 86.015625 22.933594 C 84.132813 27.976563 77.976563 34.277344 79.910156 40.0625 C 81.71875 45.472656 88.03125 45.898438 85.980469 40.21875 C 84.921875 37.285156 83.609375 36.996094 84.4375 33.609375 C 85.769531 28.160156 92.183594 21.253906 89.375 14.691406 C 95.84375 18.730469 91.871094 29.738281 92.484375 31.660156 C 92.824219 33.257813 97.820313 38.113281 97.449219 41.40625 C 96.53125 49.480469 87.96875 52.558594 81.914063 52.191406 "/>
<path style=" stroke:none;fill-rule:evenodd;fill:rgb(66.273499%,1.960754%,19.999695%);fill-opacity:1;" d="M 123.175781 52.191406 C 119.496094 52.21875 107.773438 49.867188 107.710938 41.371094 C 107.6875 38.140625 110.160156 35.105469 111.628906 32.320313 C 120.699219 19.011719 125.820313 12.914063 119.402344 0.5 C 121.394531 0.882813 124.441406 3.9375 126.015625 6.175781 C 128.800781 11.414063 129.0625 16.875 127.277344 22.933594 C 125.394531 27.976563 119.238281 34.277344 121.175781 40.0625 C 122.980469 45.472656 129.296875 45.898438 127.242188 40.21875 C 126.183594 37.285156 124.871094 36.996094 125.699219 33.609375 C 127.03125 28.160156 133.449219 21.253906 130.636719 14.691406 C 137.105469 18.730469 133.136719 29.738281 133.746094 31.660156 C 134.085938 33.257813 139.082031 38.113281 138.710938 41.40625 C 137.796875 49.480469 129.230469 52.558594 123.175781 52.191406 "/>
<path style=" stroke:none;fill-rule:evenodd;fill:rgb(13.699341%,12.199402%,12.5%);fill-opacity:1;" d="M 92.601563 66.269531 C 89.496094 65.410156 85.667969 65.039063 81.957031 65.039063 C 78.246094 65.039063 74.414063 65.410156 71.308594 66.269531 C 66.84375 63.105469 66.445313 57.332031 71.21875 55.042969 C 74.722656 54.394531 78.449219 53.9375 81.957031 53.9375 C 85.46875 53.9375 89.1875 54.394531 92.695313 55.042969 C 97.46875 57.332031 97.070313 63.105469 92.601563 66.269531 "/>
<path style=" stroke:none;fill-rule:evenodd;fill:rgb(13.699341%,12.199402%,12.5%);fill-opacity:1;" d="M 51.0625 65.878906 C 47.933594 65.144531 44.09375 64.921875 40.386719 65.0625 C 36.675781 65.207031 32.859375 65.726563 29.785156 66.703125 C 25.222656 63.714844 24.640625 57.960938 29.335938 55.484375 C 32.820313 54.703125 36.527344 54.105469 40.035156 53.96875 C 43.542969 53.832031 47.277344 54.144531 50.800781 54.65625 C 55.644531 56.761719 55.425781 62.550781 51.0625 65.878906 "/>
<path style=" stroke:none;fill-rule:evenodd;fill:rgb(13.699341%,12.199402%,12.5%);fill-opacity:1;" d="M 121.4375 270.453125 L 121.4375 270.449219 L 121.4375 270.453125 L 121.550781 270.230469 C 125.054688 263.414063 125.628906 256.835938 126.171875 250.601563 C 126.183594 250.441406 126.222656 249.464844 126.273438 248.140625 C 123.539063 247.742188 120.792969 247.378906 118.039063 247.050781 C 117.996094 248.757813 117.964844 250.09375 117.96875 250.285156 C 118.117188 256.546875 118.273438 263.152344 121.335938 270.222656 L 121.4375 270.453125 "/>
<path style=" stroke:none;fill-rule:evenodd;fill:rgb(13.699341%,12.199402%,12.5%);fill-opacity:1;" d="M 42.476563 270.453125 L 42.476563 270.449219 L 42.476563 270.453125 L 42.363281 270.230469 C 38.859375 263.414063 38.285156 256.835938 37.742188 250.601563 C 37.730469 250.433594 37.6875 249.378906 37.632813 247.964844 C 40.378906 247.558594 43.125 247.195313 45.867188 246.875 C 45.914063 248.667969 45.949219 250.085938 45.941406 250.285156 C 45.796875 256.546875 45.636719 263.152344 42.574219 270.222656 L 42.476563 270.453125 "/>
<path style=" stroke:none;fill-rule:evenodd;fill:rgb(13.699341%,12.199402%,12.5%);fill-opacity:1;" d="M 81.957031 270.453125 L 81.957031 270.449219 L 81.957031 270.453125 L 81.851563 270.226563 C 78.5625 263.277344 78.199219 256.683594 77.855469 250.429688 C 77.839844 250.15625 77.824219 247.5625 77.808594 244.871094 C 80.585938 244.84375 83.351563 244.851563 86.101563 244.898438 C 86.085938 247.582031 86.074219 250.15625 86.058594 250.429688 C 85.714844 256.683594 85.347656 263.277344 82.0625 270.226563 L 81.957031 270.453125 "/>
<path style=" stroke:none;fill-rule:evenodd;fill:rgb(13.699341%,12.199402%,12.5%);fill-opacity:1;" d="M 37.984375 109.214844 C 34.855469 97.199219 44.386719 90.054688 50.71875 89.535156 C 68.070313 88.109375 78.167969 92.921875 97.445313 94.234375 C 104.609375 94.308594 111.613281 93.964844 118.828125 90.605469 C 117.179688 96.335938 95.023438 100.804688 85.953125 100.855469 C 82.757813 100.878906 79.347656 100.632813 76.210938 100.089844 C 74.261719 99.75 45.023438 94.671875 45.90625 105.40625 C 45.988281 106.386719 47.125 106.382813 47.476563 106.21875 C 52.847656 103.746094 56.65625 101.808594 62.265625 101.578125 C 73.46875 101.121094 81.171875 104.945313 93.484375 102.113281 C 84.886719 108.445313 62.996094 106.234375 58.566406 107.734375 C 54.0625 109.257813 50.4375 112.03125 46.390625 113.320313 C 39.84375 115.398438 38.203125 110.046875 37.984375 109.214844 "/>
<path style=" stroke:none;fill-rule:evenodd;fill:rgb(13.699341%,12.199402%,12.5%);fill-opacity:1;" d="M 47.65625 138.429688 C 48.539063 136.40625 49.660156 134.273438 51.222656 132.867188 C 53.835938 130.515625 57.070313 136.511719 53.800781 137.863281 C 51.914063 138.644531 49.707031 138.53125 47.65625 138.429688 "/>
<path style=" stroke:none;fill-rule:evenodd;fill:rgb(13.699341%,12.199402%,12.5%);fill-opacity:1;" d="M 38.347656 142.96875 C 36.804688 142.113281 34.960938 141.195313 33.289063 140.625 C 34.84375 140.148438 36.398438 139.304688 37.863281 138.527344 C 36.191406 136.984375 34.394531 135.289063 32.390625 134.621094 C 29.425781 133.632813 28.691406 139.078125 30.699219 140.53125 C 28.40625 141.65625 28.789063 146.910156 31.480469 147.011719 C 30.589844 148.625 32.09375 151.976563 33.992188 150.851563 C 35.414063 150.007813 36.957031 147.894531 37.546875 147.003906 C 36.363281 146.675781 35.082031 146.332031 33.867188 146.207031 C 35.414063 145.316406 36.957031 144.097656 38.347656 142.96875 "/>
<path style=" stroke:none;fill-rule:evenodd;fill:rgb(13.699341%,12.199402%,12.5%);fill-opacity:1;" d="M 46.632813 210.457031 C 54.621094 208.882813 58.066406 207.328125 62.976563 204.894531 C 68.226563 202.679688 72.59375 199.996094 77.816406 196.351563 C 73 196 68.988281 193.914063 65.886719 191.289063 C 61.816406 187.839844 59.34375 183.46875 58.804688 180.789063 C 58.335938 183.800781 57.433594 186.363281 55.839844 188.898438 C 54.097656 191.667969 50.902344 197.359375 47.777344 193.726563 C 46.296875 192.605469 41.945313 195.101563 39.457031 194.460938 C 34.527344 193.1875 34.613281 199.019531 37.390625 200.585938 C 35.074219 202.378906 36.054688 207.027344 39.246094 207.429688 C 38.230469 209.238281 40.546875 212.261719 43.136719 211.203125 C 44.332031 210.714844 45.28125 210.753906 46.632813 210.457031 "/>
<path style=" stroke:none;fill-rule:evenodd;fill:rgb(13.699341%,12.199402%,12.5%);fill-opacity:1;" d="M 50.496094 165.128906 C 51.484375 165.773438 52.90625 166.6875 53.730469 167.394531 C 53.816406 167.46875 53.894531 167.535156 53.957031 167.589844 C 54.425781 165.957031 55.007813 164.636719 55.667969 163.558594 C 56.34375 162.453125 57.109375 161.605469 57.9375 160.9375 C 58.183594 159.324219 58.539063 158.15625 58.789063 157.007813 C 59.019531 155.945313 60.320313 153.589844 61.308594 152.410156 C 60.875 152.179688 59.992188 152.121094 59.339844 152.015625 C 56.914063 151.617188 53.359375 150.523438 51.898438 149.457031 C 51.691406 152.097656 51.445313 154.679688 51.199219 157.261719 C 50.953125 159.855469 50.703125 162.453125 50.496094 165.128906 "/>
<path style=" stroke:none;fill-rule:evenodd;fill:rgb(13.699341%,12.199402%,12.5%);fill-opacity:1;" d="M 52.035156 115.429688 C 54.046875 116.644531 55.738281 117.800781 55.660156 121.417969 C 55.609375 123.742188 53.679688 127.183594 52.035156 127.945313 L 32.753906 127.945313 C 31.113281 127.183594 29.179688 123.742188 29.128906 121.417969 C 29.050781 117.800781 30.742188 116.644531 32.753906 115.429688 L 52.035156 115.429688 "/>
<path style=" stroke:none;fill-rule:evenodd;fill:rgb(13.699341%,12.199402%,12.5%);fill-opacity:1;" d="M 122.496094 211.296875 C 124.757813 209.71875 126.695313 207.523438 128.265625 204.699219 L 128.269531 204.695313 C 130.386719 200.9375 131.59375 196.582031 131.625 191.804688 C 131.648438 188.089844 131.171875 184.117188 130.722656 179.972656 C 130.15625 174.734375 120.78125 149.453125 118.664063 144.621094 C 116.996094 140.8125 114.023438 134.253906 114.246094 131.402344 C 114.390625 125.226563 118.863281 121.523438 124.34375 121.574219 C 127.425781 121.601563 130.84375 124.089844 132.570313 127.238281 C 133.851563 129.820313 134.035156 133.140625 133.398438 137.21875 C 133.394531 137.230469 133.375 137.273438 133.367188 137.28125 C 127.726563 143.296875 128.847656 147.585938 130.808594 155.082031 C 132 159.628906 133.492188 165.34375 133.992188 173.320313 C 134.585938 166.75 135.117188 160.359375 135.605469 153.996094 C 136.128906 147.171875 136.820313 143.824219 137.253906 136.859375 C 137.253906 136.855469 137.253906 136.855469 137.253906 136.855469 L 137.253906 136.859375 C 137.253906 136.855469 137.253906 136.855469 137.253906 136.855469 C 137.4375 132.019531 136.734375 127.148438 134.523438 123.769531 C 132.121094 120.089844 128.453125 117.617188 123.757813 117.886719 C 112.839844 118.507813 107.523438 129.078125 112.253906 139.386719 C 115.835938 147.1875 120.441406 160.113281 123.300781 168.34375 C 126.167969 176.605469 127.496094 183.621094 124.9375 186.46875 C 124.894531 186.515625 124.8125 186.507813 124.777344 186.453125 C 122.089844 182.234375 118.191406 180.71875 114.15625 179.152344 C 109.402344 177.304688 104.191406 174.785156 100.769531 168.316406 C 100.046875 169.988281 98.773438 171.472656 97.359375 172.671875 C 95.429688 174.3125 91.789063 176.460938 90.398438 176.808594 C 90.316406 176.828125 90.246094 176.734375 90.28125 176.65625 C 90.4375 176.28125 90.59375 175.894531 90.703125 175.394531 C 90.804688 174.941406 90.867188 174.390625 90.863281 173.660156 C 89.574219 174.917969 89.046875 175.0625 86.910156 176.332031 C 81.890625 179.320313 76.554688 182.070313 77.0625 188.164063 C 77.636719 195.082031 84.644531 196.929688 92.363281 197.464844 C 96.839844 197.773438 101.3125 198.09375 104.890625 199.679688 C 104.917969 198.957031 105.355469 197.601563 105.980469 196.386719 C 106.4375 195.5 107.074219 194.6875 107.929688 194.246094 C 108.011719 194.207031 108.105469 194.3125 108.066406 194.398438 C 107.21875 196.210938 106.835938 199.476563 106.871094 201.109375 C 107.046875 209.757813 116.867188 210.582031 122.496094 211.296875 "/>
<path style=" stroke:none;fill-rule:evenodd;fill:rgb(13.699341%,12.199402%,12.5%);fill-opacity:1;" d="M 58.398438 175.183594 C 58.488281 174.921875 58.867188 174.9375 58.9375 175.210938 C 60.429688 180.804688 63.324219 185.96875 67.320313 189.675781 C 70.597656 192.714844 74.617188 194.769531 79.222656 195.28125 C 78.285156 194.664063 77.363281 193.773438 76.605469 192.675781 C 75.628906 191.257813 74.925781 189.496094 74.832031 187.542969 C 74.738281 185.589844 75.257813 183.449219 76.714844 181.269531 C 78.492188 178.609375 81.675781 175.894531 86.878906 173.40625 C 87.613281 172.976563 89.234375 172.046875 90.710938 170.566406 C 92.183594 169.089844 93.523438 167.054688 93.722656 164.390625 C 93.742188 164.09375 94.191406 164.039063 94.277344 164.324219 C 94.652344 165.574219 94.742188 166.898438 94.632813 168.261719 C 94.542969 169.382813 94.316406 170.53125 93.996094 171.691406 C 96.707031 170.023438 98.679688 167.125 100.097656 163.941406 C 102.667969 158.167969 103.410156 151.476563 103.425781 149.410156 C 103.429688 149.15625 103.726563 149.019531 103.902344 149.191406 C 104.269531 149.546875 104.648438 150.011719 104.976563 150.59375 C 105.035156 150.703125 105.097656 150.820313 105.152344 150.9375 C 105.304688 147.09375 104.957031 143.78125 104.128906 140.683594 C 103.199219 137.203125 101.664063 133.988281 99.554688 130.574219 C 99.4375 130.382813 99.5625 130.113281 99.773438 130.101563 C 100.078125 130.085938 100.414063 130.152344 100.785156 130.320313 C 100.921875 130.382813 101.066406 130.460938 101.21875 130.554688 C 99.652344 126.195313 97.578125 123.515625 95.042969 120.238281 C 94.773438 119.894531 94.503906 119.542969 94.277344 119.25 C 94.242188 119.203125 94.207031 119.054688 94.21875 118.992188 C 94.414063 118.039063 94.542969 117.542969 94.835938 117.117188 C 95.089844 116.742188 95.445313 116.457031 96.066406 115.988281 C 95.226563 115.007813 93.277344 114.242188 91.105469 113.71875 C 88.25 113.03125 85.039063 112.78125 83.417969 113.019531 C 84.214844 114.527344 84.546875 116.078125 84.585938 117.527344 C 84.640625 119.558594 84.113281 121.398438 83.472656 122.648438 C 83.335938 122.914063 82.898438 122.753906 82.941406 122.453125 C 83.070313 121.597656 83.339844 119.925781 83.261719 118.117188 C 83.183594 116.371094 82.78125 114.488281 81.605469 113.085938 C 76.742188 112.488281 69.792969 115.503906 65.414063 117.402344 C 65.085938 117.542969 64.9375 117.609375 64.8125 117.664063 C 64.972656 118.648438 64.878906 119.558594 64.789063 120.4375 C 64.609375 122.132813 64.445313 123.714844 66.382813 125.410156 C 67.414063 123.148438 68.96875 122.917969 70.484375 123.652344 C 71.507813 124.144531 72.507813 125.101563 73.296875 126.148438 C 74.085938 127.199219 74.667969 128.355469 74.859375 129.25 C 75.046875 130.117188 74.886719 130.777344 74.242188 130.984375 C 74.1875 131.027344 74.117188 131.0625 74.039063 131.089844 C 73.667969 131.210938 72.855469 131.226563 72.039063 131.089844 C 71.210938 130.949219 70.355469 130.660156 69.886719 130.171875 C 69.726563 130.003906 69.609375 129.816406 69.546875 129.601563 C 69.492188 129.46875 69.445313 129.363281 69.402344 129.285156 C 69.367188 129.457031 69.34375 129.679688 69.335938 129.867188 C 69.382813 130.773438 69.546875 131.683594 69.839844 132.480469 C 70.082031 133.128906 70.402344 133.695313 70.808594 134.117188 C 70.96875 134.058594 71.15625 133.980469 71.363281 133.898438 C 72.101563 133.601563 73.078125 133.210938 74.128906 133.046875 C 74.128906 133.046875 74.167969 133.042969 74.167969 133.042969 C 74.863281 133.046875 75.605469 133.070313 76.355469 133.097656 C 78.796875 133.1875 81.359375 133.277344 82.871094 132.480469 C 84.285156 131.734375 84.78125 130.136719 83.351563 126.824219 C 83.234375 126.546875 83.667969 126.273438 83.835938 126.515625 C 86.515625 130.359375 85.386719 132.683594 83.816406 134.019531 C 83.070313 134.65625 82.226563 135.058594 81.660156 135.289063 C 82.269531 135.707031 82.613281 136.296875 82.746094 136.976563 C 82.878906 137.660156 82.789063 138.433594 82.546875 139.203125 C 82.421875 139.589844 82.261719 139.980469 82.066406 140.359375 C 82.050781 140.390625 81.949219 140.484375 81.914063 140.496094 C 78.40625 141.886719 71.777344 145.113281 66.816406 149.230469 C 63.84375 151.699219 61.472656 154.484375 60.765625 157.367188 C 61.46875 156.894531 62.1875 156.542969 62.96875 156.308594 C 63.960938 156.011719 65.050781 155.90625 66.34375 155.980469 C 66.613281 155.992188 66.671875 156.480469 66.421875 156.570313 C 65.699219 156.828125 64.96875 157.152344 64.242188 157.539063 C 61.265625 159.128906 58.390625 161.785156 56.648438 165.351563 C 54.90625 168.914063 54.285156 173.390625 55.804688 178.613281 C 56.046875 179.445313 56.347656 180.300781 56.703125 181.167969 C 57.058594 180.171875 57.328125 179.109375 57.589844 178.054688 C 57.835938 177.078125 58.082031 176.109375 58.398438 175.183594 Z M 74.734375 117.492188 L 74.816406 117.390625 C 74.820313 117.386719 74.828125 117.378906 74.835938 117.367188 C 74.839844 117.359375 74.84375 117.351563 74.851563 117.34375 C 74.859375 117.335938 74.863281 117.328125 74.871094 117.320313 C 74.878906 117.3125 74.886719 117.304688 74.890625 117.296875 C 74.898438 117.289063 74.90625 117.28125 74.914063 117.273438 C 74.917969 117.265625 74.925781 117.257813 74.933594 117.253906 C 74.941406 117.242188 74.945313 117.234375 74.953125 117.226563 C 74.960938 117.21875 74.96875 117.210938 74.976563 117.203125 C 74.984375 117.195313 74.992188 117.1875 74.996094 117.179688 C 74.996094 117.179688 75 117.179688 75 117.179688 C 75.007813 117.171875 75.015625 117.164063 75.019531 117.15625 C 75.027344 117.148438 75.035156 117.140625 75.042969 117.132813 C 75.050781 117.125 75.058594 117.117188 75.066406 117.109375 C 75.074219 117.101563 75.082031 117.09375 75.089844 117.085938 C 75.089844 117.085938 75.089844 117.085938 75.09375 117.085938 C 75.097656 117.078125 75.109375 117.070313 75.117188 117.0625 C 75.125 117.054688 75.132813 117.046875 75.140625 117.039063 C 75.148438 117.03125 75.15625 117.023438 75.167969 117.015625 C 75.175781 117.007813 75.183594 117 75.191406 116.992188 C 75.199219 116.984375 75.207031 116.976563 75.21875 116.96875 C 75.226563 116.960938 75.234375 116.953125 75.246094 116.945313 C 75.253906 116.9375 75.261719 116.929688 75.273438 116.921875 C 75.28125 116.914063 75.289063 116.90625 75.296875 116.898438 C 75.308594 116.890625 75.316406 116.882813 75.328125 116.875 C 75.335938 116.867188 75.34375 116.859375 75.351563 116.851563 C 75.351563 116.851563 75.351563 116.851563 75.355469 116.851563 C 75.363281 116.847656 75.375 116.835938 75.382813 116.828125 C 75.390625 116.820313 75.402344 116.816406 75.410156 116.808594 C 75.421875 116.800781 75.429688 116.792969 75.441406 116.785156 C 75.449219 116.777344 75.460938 116.769531 75.46875 116.761719 C 75.480469 116.753906 75.488281 116.746094 75.5 116.738281 C 75.511719 116.734375 75.519531 116.726563 75.53125 116.71875 C 75.539063 116.710938 75.550781 116.703125 75.5625 116.695313 C 75.570313 116.6875 75.582031 116.679688 75.59375 116.675781 C 75.601563 116.664063 75.613281 116.660156 75.625 116.652344 C 75.636719 116.644531 75.644531 116.636719 75.65625 116.628906 C 75.664063 116.621094 75.675781 116.617188 75.6875 116.609375 C 75.699219 116.601563 75.710938 116.59375 75.71875 116.585938 C 75.71875 116.585938 75.71875 116.585938 75.71875 116.589844 C 75.730469 116.578125 75.742188 116.574219 75.753906 116.566406 C 75.765625 116.558594 75.773438 116.550781 75.785156 116.546875 C 75.796875 116.539063 75.808594 116.53125 75.820313 116.523438 C 75.832031 116.519531 75.839844 116.511719 75.851563 116.503906 C 75.863281 116.496094 75.875 116.488281 75.886719 116.484375 C 75.898438 116.476563 75.910156 116.46875 75.921875 116.464844 C 75.933594 116.457031 75.945313 116.449219 75.957031 116.445313 C 75.96875 116.4375 75.976563 116.429688 75.992188 116.425781 C 76.003906 116.417969 76.015625 116.410156 76.027344 116.402344 C 76.039063 116.398438 76.050781 116.390625 76.0625 116.386719 C 76.074219 116.378906 76.085938 116.371094 76.097656 116.367188 C 76.109375 116.359375 76.121094 116.355469 76.132813 116.347656 C 76.144531 116.339844 76.15625 116.335938 76.171875 116.328125 C 76.183594 116.320313 76.195313 116.316406 76.207031 116.3125 C 76.21875 116.304688 76.230469 116.300781 76.242188 116.292969 C 76.257813 116.285156 76.269531 116.28125 76.28125 116.273438 C 76.292969 116.269531 76.304688 116.261719 76.316406 116.257813 C 76.332031 116.253906 76.34375 116.246094 76.355469 116.242188 C 76.367188 116.234375 76.382813 116.230469 76.394531 116.222656 C 76.40625 116.21875 76.417969 116.210938 76.433594 116.207031 C 76.445313 116.203125 76.457031 116.195313 76.46875 116.191406 C 76.484375 116.183594 76.496094 116.179688 76.507813 116.175781 C 76.523438 116.171875 76.535156 116.164063 76.546875 116.160156 C 76.5625 116.152344 76.574219 116.148438 76.585938 116.144531 C 76.601563 116.140625 76.613281 116.132813 76.625 116.128906 C 76.640625 116.125 76.652344 116.117188 76.664063 116.113281 C 76.679688 116.109375 76.691406 116.105469 76.707031 116.101563 C 76.71875 116.09375 76.734375 116.089844 76.746094 116.085938 C 76.757813 116.082031 76.773438 116.078125 76.785156 116.070313 C 76.796875 116.070313 76.808594 116.066406 76.820313 116.0625 C 76.828125 116.058594 76.839844 116.054688 76.851563 116.050781 C 76.863281 116.046875 76.871094 116.046875 76.882813 116.039063 C 76.894531 116.039063 76.90625 116.035156 76.914063 116.03125 C 76.925781 116.027344 76.9375 116.027344 76.949219 116.023438 C 76.957031 116.019531 76.96875 116.015625 76.980469 116.011719 C 76.992188 116.007813 77.003906 116.007813 77.015625 116.003906 C 77.023438 116 77.035156 115.996094 77.046875 115.996094 C 77.058594 115.992188 77.070313 115.988281 77.078125 115.984375 L 77.082031 115.984375 C 77.089844 115.984375 77.101563 115.980469 77.113281 115.976563 C 77.125 115.976563 77.136719 115.972656 77.144531 115.96875 C 77.15625 115.96875 77.167969 115.964844 77.179688 115.960938 C 77.191406 115.960938 77.203125 115.957031 77.214844 115.953125 C 77.222656 115.953125 77.234375 115.949219 77.246094 115.945313 C 77.257813 115.945313 77.269531 115.941406 77.28125 115.941406 C 77.292969 115.9375 77.304688 115.933594 77.316406 115.933594 C 77.328125 115.929688 77.335938 115.929688 77.347656 115.925781 C 77.359375 115.925781 77.371094 115.921875 77.382813 115.921875 C 77.394531 115.917969 77.40625 115.917969 77.417969 115.914063 C 77.425781 115.914063 77.441406 115.910156 77.449219 115.910156 C 77.464844 115.90625 77.472656 115.90625 77.484375 115.902344 C 77.496094 115.902344 77.507813 115.902344 77.519531 115.898438 C 77.53125 115.898438 77.542969 115.894531 77.554688 115.894531 C 77.566406 115.894531 77.578125 115.890625 77.589844 115.890625 C 77.601563 115.890625 77.613281 115.886719 77.625 115.886719 C 77.636719 115.886719 77.648438 115.882813 77.65625 115.882813 C 77.667969 115.882813 77.679688 115.878906 77.691406 115.878906 C 77.707031 115.878906 77.714844 115.878906 77.726563 115.875 C 77.738281 115.875 77.75 115.871094 77.761719 115.871094 C 77.773438 115.871094 77.785156 115.871094 77.796875 115.871094 C 77.808594 115.867188 77.820313 115.867188 77.832031 115.867188 C 77.84375 115.867188 77.855469 115.867188 77.867188 115.867188 C 77.878906 115.863281 77.890625 115.863281 77.902344 115.863281 C 77.914063 115.863281 77.925781 115.863281 77.9375 115.863281 C 77.949219 115.863281 77.960938 115.863281 77.972656 115.863281 C 77.984375 115.863281 77.996094 115.863281 78.007813 115.863281 C 78.019531 115.863281 78.03125 115.863281 78.042969 115.863281 C 78.054688 115.863281 78.066406 115.863281 78.082031 115.863281 C 78.09375 115.863281 78.101563 115.863281 78.117188 115.863281 C 78.125 115.863281 78.140625 115.863281 78.148438 115.863281 L 78.152344 115.863281 C 78.164063 115.863281 78.175781 115.863281 78.1875 115.863281 C 78.199219 115.863281 78.210938 115.867188 78.222656 115.867188 C 78.234375 115.867188 78.246094 115.867188 78.257813 115.867188 C 78.269531 115.867188 78.28125 115.871094 78.292969 115.871094 C 78.304688 115.871094 78.316406 115.871094 78.328125 115.871094 C 78.34375 115.875 78.351563 115.875 78.363281 115.878906 L 78.367188 115.878906 C 78.378906 115.878906 78.390625 115.878906 78.402344 115.878906 C 78.414063 115.882813 78.425781 115.882813 78.4375 115.882813 C 78.449219 115.886719 78.460938 115.886719 78.472656 115.886719 C 78.484375 115.890625 78.496094 115.890625 78.507813 115.890625 C 78.519531 115.894531 78.53125 115.894531 78.542969 115.898438 C 78.554688 115.898438 78.566406 115.898438 78.582031 115.902344 C 78.59375 115.902344 78.605469 115.90625 78.613281 115.910156 C 78.613281 115.90625 78.617188 115.910156 78.617188 115.910156 C 78.628906 115.910156 78.640625 115.910156 78.652344 115.914063 C 78.664063 115.914063 78.675781 115.917969 78.6875 115.921875 C 78.699219 115.921875 78.710938 115.925781 78.722656 115.925781 L 78.726563 115.925781 C 78.738281 115.929688 78.746094 115.933594 78.761719 115.933594 C 78.773438 115.9375 78.785156 115.941406 78.796875 115.941406 C 78.808594 115.945313 78.820313 115.949219 78.832031 115.949219 C 78.84375 115.953125 78.855469 115.957031 78.867188 115.960938 C 78.878906 115.960938 78.890625 115.964844 78.902344 115.96875 C 78.914063 115.972656 78.925781 115.976563 78.941406 115.976563 C 78.953125 115.980469 78.964844 115.984375 78.976563 115.988281 C 78.988281 115.992188 79 115.992188 79.011719 115.996094 L 79.0625 116.011719 L 79.058594 116.066406 C 79.058594 116.070313 79.058594 116.074219 79.058594 116.078125 C 79.058594 116.078125 79.058594 116.085938 79.058594 116.085938 C 79.058594 116.089844 79.058594 116.09375 79.058594 116.09375 C 79.058594 116.097656 79.058594 116.101563 79.058594 116.105469 C 79.058594 116.109375 79.054688 116.109375 79.054688 116.113281 C 79.054688 116.117188 79.054688 116.121094 79.054688 116.121094 C 79.054688 116.128906 79.054688 116.128906 79.054688 116.132813 C 79.050781 116.136719 79.054688 116.140625 79.050781 116.144531 C 79.050781 116.144531 79.050781 116.148438 79.050781 116.152344 C 79.050781 116.15625 79.050781 116.160156 79.050781 116.164063 C 79.046875 116.164063 79.046875 116.171875 79.046875 116.171875 C 79.046875 116.175781 79.046875 116.179688 79.046875 116.183594 C 79.046875 116.1875 79.046875 116.191406 79.046875 116.195313 C 79.042969 116.195313 79.042969 116.199219 79.042969 116.203125 C 79.042969 116.207031 79.042969 116.210938 79.039063 116.214844 C 79.039063 116.21875 79.039063 116.222656 79.039063 116.226563 C 79.039063 116.226563 79.039063 116.230469 79.035156 116.234375 C 79.035156 116.238281 79.035156 116.242188 79.035156 116.246094 C 79.03125 116.25 79.03125 116.253906 79.03125 116.257813 C 79.03125 116.261719 79.03125 116.265625 79.027344 116.269531 C 79.027344 116.273438 79.027344 116.277344 79.027344 116.28125 L 79.023438 116.28125 C 79.023438 116.28125 79.023438 116.285156 79.023438 116.289063 C 79.023438 116.292969 79.019531 116.296875 79.019531 116.300781 C 79.019531 116.304688 79.019531 116.308594 79.015625 116.3125 C 79.015625 116.316406 79.015625 116.320313 79.015625 116.324219 C 79.011719 116.328125 79.011719 116.332031 79.011719 116.335938 C 79.007813 116.339844 79.007813 116.34375 79.007813 116.347656 C 79.003906 116.351563 79.003906 116.355469 79.003906 116.359375 C 79.003906 116.363281 79 116.367188 79 116.371094 C 78.996094 116.375 78.996094 116.378906 78.996094 116.382813 C 78.992188 116.386719 78.992188 116.390625 78.992188 116.394531 C 78.992188 116.398438 78.988281 116.402344 78.988281 116.40625 C 78.988281 116.410156 78.984375 116.414063 78.984375 116.417969 C 78.984375 116.421875 78.980469 116.425781 78.980469 116.429688 C 78.976563 116.433594 78.976563 116.4375 78.976563 116.441406 C 78.972656 116.445313 78.972656 116.449219 78.972656 116.453125 C 78.96875 116.457031 78.96875 116.460938 78.96875 116.464844 C 78.964844 116.46875 78.964844 116.472656 78.960938 116.476563 C 78.960938 116.480469 78.960938 116.484375 78.957031 116.488281 C 78.957031 116.492188 78.953125 116.496094 78.953125 116.503906 C 78.953125 116.507813 78.949219 116.511719 78.949219 116.515625 C 78.945313 116.519531 78.945313 116.523438 78.945313 116.527344 C 78.941406 116.53125 78.941406 116.535156 78.9375 116.539063 C 78.9375 116.542969 78.933594 116.546875 78.933594 116.550781 C 78.933594 116.554688 78.929688 116.558594 78.929688 116.5625 C 78.925781 116.566406 78.925781 116.570313 78.921875 116.574219 C 78.921875 116.578125 78.917969 116.585938 78.917969 116.589844 C 78.914063 116.59375 78.914063 116.597656 78.914063 116.601563 C 78.910156 116.605469 78.910156 116.609375 78.90625 116.613281 C 78.90625 116.617188 78.902344 116.621094 78.902344 116.625 C 78.902344 116.628906 78.898438 116.632813 78.898438 116.636719 C 78.894531 116.640625 78.894531 116.644531 78.890625 116.648438 C 78.890625 116.652344 78.886719 116.660156 78.886719 116.660156 C 78.882813 116.667969 78.882813 116.671875 78.878906 116.675781 C 78.878906 116.679688 78.875 116.683594 78.875 116.6875 C 78.871094 116.691406 78.871094 116.695313 78.867188 116.699219 C 78.867188 116.703125 78.863281 116.707031 78.863281 116.710938 C 78.859375 116.714844 78.859375 116.71875 78.855469 116.726563 C 78.855469 116.730469 78.851563 116.734375 78.851563 116.738281 C 78.847656 116.742188 78.847656 116.746094 78.84375 116.75 C 78.84375 116.753906 78.839844 116.757813 78.839844 116.761719 C 78.835938 116.765625 78.832031 116.769531 78.832031 116.773438 C 78.828125 116.777344 78.828125 116.78125 78.824219 116.785156 C 78.824219 116.789063 78.820313 116.792969 78.820313 116.796875 C 78.816406 116.800781 78.8125 116.808594 78.8125 116.8125 C 78.808594 116.8125 78.808594 116.816406 78.804688 116.824219 C 78.804688 116.824219 78.800781 116.828125 78.800781 116.835938 C 78.796875 116.839844 78.796875 116.84375 78.792969 116.847656 C 78.789063 116.851563 78.789063 116.855469 78.785156 116.859375 C 78.785156 116.863281 78.78125 116.863281 78.78125 116.871094 C 78.777344 116.871094 78.777344 116.878906 78.773438 116.882813 C 78.773438 116.886719 78.769531 116.890625 78.769531 116.894531 C 78.765625 116.894531 78.761719 116.902344 78.761719 116.90625 C 78.757813 116.910156 78.757813 116.910156 78.753906 116.914063 C 78.753906 116.921875 78.75 116.925781 78.746094 116.929688 C 78.746094 116.933594 78.742188 116.933594 78.742188 116.941406 C 78.738281 116.941406 78.738281 116.945313 78.734375 116.949219 C 78.730469 116.953125 78.730469 116.960938 78.726563 116.960938 C 78.726563 116.964844 78.722656 116.96875 78.71875 116.972656 C 78.71875 116.976563 78.714844 116.980469 78.714844 116.984375 C 78.710938 116.988281 78.707031 116.992188 78.707031 116.996094 C 78.703125 117 78.703125 117.003906 78.699219 117.007813 C 78.695313 117.011719 78.695313 117.015625 78.691406 117.019531 C 78.691406 117.023438 78.6875 117.027344 78.683594 117.027344 C 78.683594 117.035156 78.679688 117.035156 78.679688 117.039063 C 78.675781 117.046875 78.671875 117.046875 78.671875 117.050781 C 78.667969 117.054688 78.664063 117.058594 78.664063 117.0625 C 78.660156 117.066406 78.660156 117.070313 78.65625 117.074219 C 78.652344 117.074219 78.652344 117.078125 78.648438 117.085938 C 78.648438 117.085938 78.644531 117.089844 78.640625 117.09375 C 78.640625 117.097656 78.636719 117.101563 78.632813 117.105469 C 78.632813 117.109375 78.628906 117.113281 78.628906 117.117188 C 78.625 117.117188 78.621094 117.121094 78.621094 117.128906 C 78.621094 117.125 78.621094 117.128906 78.621094 117.128906 C 78.617188 117.128906 78.613281 117.132813 78.613281 117.136719 C 78.609375 117.140625 78.605469 117.144531 78.605469 117.144531 C 78.601563 117.148438 78.601563 117.152344 78.597656 117.15625 C 78.59375 117.160156 78.59375 117.164063 78.589844 117.167969 C 78.585938 117.171875 78.585938 117.175781 78.582031 117.175781 C 78.582031 117.179688 78.578125 117.183594 78.574219 117.1875 C 78.574219 117.191406 78.570313 117.195313 78.566406 117.195313 C 78.566406 117.199219 78.5625 117.203125 78.558594 117.207031 C 78.558594 117.210938 78.554688 117.214844 78.550781 117.214844 C 78.550781 117.21875 78.546875 117.222656 78.546875 117.226563 C 78.542969 117.230469 78.539063 117.230469 78.535156 117.234375 C 78.535156 117.238281 78.53125 117.242188 78.53125 117.242188 C 78.527344 117.246094 78.523438 117.25 78.523438 117.253906 C 78.519531 117.257813 78.515625 117.257813 78.515625 117.261719 C 78.511719 117.265625 78.507813 117.269531 78.507813 117.273438 C 78.503906 117.273438 78.503906 117.277344 78.5 117.28125 C 78.496094 117.285156 78.496094 117.285156 78.492188 117.289063 C 78.488281 117.292969 78.488281 117.296875 78.484375 117.296875 C 78.480469 117.300781 78.480469 117.304688 78.476563 117.304688 C 78.472656 117.308594 78.472656 117.3125 78.46875 117.3125 C 78.464844 117.316406 78.464844 117.320313 78.460938 117.324219 C 78.460938 117.324219 78.460938 117.320313 78.460938 117.324219 C 78.457031 117.324219 78.457031 117.328125 78.453125 117.328125 C 78.453125 117.335938 78.449219 117.335938 78.445313 117.339844 C 78.445313 117.339844 78.441406 117.34375 78.4375 117.347656 C 78.4375 117.347656 78.433594 117.351563 78.429688 117.355469 C 78.425781 117.355469 78.425781 117.359375 78.421875 117.359375 C 78.421875 117.363281 78.417969 117.367188 78.414063 117.367188 C 78.414063 117.371094 78.410156 117.375 78.40625 117.375 C 78.40625 117.378906 78.402344 117.378906 78.402344 117.382813 C 78.398438 117.386719 78.394531 117.386719 78.394531 117.390625 C 78.390625 117.390625 78.386719 117.394531 78.386719 117.398438 C 78.382813 117.398438 78.378906 117.402344 78.378906 117.402344 C 78.375 117.40625 78.371094 117.40625 78.371094 117.410156 C 78.367188 117.410156 78.363281 117.414063 78.363281 117.414063 C 78.359375 117.417969 78.359375 117.421875 78.355469 117.421875 L 78.332031 117.433594 C 78.324219 117.4375 78.316406 117.4375 78.304688 117.441406 C 78.296875 117.441406 78.285156 117.445313 78.277344 117.449219 C 78.269531 117.449219 78.257813 117.453125 78.25 117.453125 C 78.242188 117.457031 78.230469 117.460938 78.222656 117.460938 C 78.214844 117.464844 78.203125 117.464844 78.195313 117.46875 C 78.183594 117.46875 78.175781 117.472656 78.167969 117.472656 C 78.15625 117.476563 78.148438 117.480469 78.136719 117.480469 C 78.128906 117.480469 78.121094 117.484375 78.109375 117.488281 C 78.101563 117.488281 78.089844 117.492188 78.082031 117.492188 C 78.070313 117.496094 78.0625 117.496094 78.054688 117.5 C 78.042969 117.5 78.035156 117.503906 78.023438 117.503906 C 78.015625 117.507813 78.007813 117.507813 77.996094 117.511719 C 77.988281 117.511719 77.976563 117.511719 77.96875 117.515625 C 77.960938 117.515625 77.949219 117.519531 77.941406 117.519531 C 77.929688 117.523438 77.921875 117.523438 77.910156 117.527344 C 77.902344 117.527344 77.894531 117.527344 77.882813 117.53125 C 77.875 117.53125 77.863281 117.535156 77.855469 117.535156 C 77.84375 117.535156 77.835938 117.539063 77.828125 117.539063 C 77.816406 117.542969 77.804688 117.542969 77.796875 117.546875 C 77.785156 117.546875 77.777344 117.546875 77.769531 117.550781 C 77.757813 117.550781 77.75 117.550781 77.738281 117.554688 C 77.730469 117.554688 77.722656 117.554688 77.710938 117.558594 C 77.703125 117.558594 77.691406 117.558594 77.679688 117.5625 C 77.671875 117.5625 77.664063 117.5625 77.652344 117.566406 C 77.644531 117.566406 77.632813 117.566406 77.625 117.570313 C 77.613281 117.570313 77.605469 117.570313 77.597656 117.570313 L 77.59375 117.570313 C 77.585938 117.574219 77.574219 117.574219 77.566406 117.574219 C 77.554688 117.578125 77.546875 117.578125 77.539063 117.578125 C 77.527344 117.582031 77.519531 117.582031 77.507813 117.582031 C 77.5 117.585938 77.488281 117.585938 77.480469 117.585938 C 77.46875 117.585938 77.460938 117.589844 77.449219 117.589844 C 77.441406 117.589844 77.433594 117.589844 77.421875 117.589844 C 77.414063 117.59375 77.402344 117.59375 77.394531 117.59375 L 77.390625 117.59375 C 77.382813 117.597656 77.371094 117.597656 77.363281 117.597656 C 77.351563 117.597656 77.34375 117.597656 77.335938 117.601563 C 77.324219 117.601563 77.316406 117.601563 77.304688 117.601563 C 77.296875 117.601563 77.285156 117.605469 77.277344 117.605469 C 77.265625 117.605469 77.257813 117.605469 77.246094 117.605469 C 77.238281 117.605469 77.226563 117.609375 77.21875 117.609375 C 77.207031 117.609375 77.199219 117.609375 77.1875 117.609375 C 77.179688 117.609375 77.167969 117.613281 77.160156 117.613281 C 77.148438 117.613281 77.140625 117.613281 77.128906 117.613281 C 77.121094 117.613281 77.109375 117.617188 77.101563 117.617188 C 77.089844 117.617188 77.082031 117.617188 77.074219 117.617188 C 77.0625 117.617188 77.054688 117.617188 77.042969 117.617188 C 77.03125 117.621094 77.023438 117.621094 77.015625 117.621094 C 77.003906 117.621094 76.996094 117.621094 76.984375 117.621094 C 76.976563 117.621094 76.964844 117.621094 76.957031 117.621094 C 76.945313 117.621094 76.9375 117.621094 76.925781 117.621094 C 76.917969 117.625 76.90625 117.625 76.898438 117.625 C 76.886719 117.625 76.878906 117.625 76.867188 117.625 C 76.859375 117.625 76.847656 117.625 76.839844 117.625 C 76.828125 117.625 76.820313 117.628906 76.808594 117.628906 C 76.800781 117.628906 76.792969 117.628906 76.78125 117.628906 C 76.773438 117.628906 76.761719 117.628906 76.753906 117.628906 C 76.742188 117.628906 76.734375 117.628906 76.722656 117.628906 C 76.714844 117.628906 76.703125 117.628906 76.695313 117.628906 C 76.683594 117.628906 76.675781 117.628906 76.664063 117.628906 C 76.65625 117.628906 76.644531 117.628906 76.636719 117.628906 C 76.628906 117.628906 76.617188 117.628906 76.609375 117.628906 C 76.597656 117.628906 76.589844 117.628906 76.578125 117.628906 C 76.570313 117.628906 76.5625 117.628906 76.550781 117.628906 C 76.539063 117.628906 76.53125 117.628906 76.523438 117.628906 C 76.511719 117.628906 76.503906 117.628906 76.492188 117.628906 C 76.484375 117.628906 76.472656 117.628906 76.464844 117.628906 C 76.457031 117.628906 76.445313 117.628906 76.4375 117.628906 C 76.425781 117.628906 76.417969 117.628906 76.410156 117.628906 C 76.398438 117.628906 76.390625 117.625 76.378906 117.625 C 76.371094 117.625 76.359375 117.625 76.351563 117.625 C 76.34375 117.625 76.332031 117.625 76.324219 117.625 C 76.3125 117.625 76.304688 117.625 76.296875 117.625 C 76.285156 117.625 76.277344 117.621094 76.265625 117.621094 C 76.257813 117.621094 76.25 117.621094 76.238281 117.621094 C 76.230469 117.621094 76.21875 117.621094 76.210938 117.621094 C 76.203125 117.621094 76.191406 117.621094 76.183594 117.621094 C 76.175781 117.621094 76.164063 117.621094 76.15625 117.621094 C 76.148438 117.617188 76.136719 117.617188 76.128906 117.617188 C 76.117188 117.617188 76.109375 117.617188 76.101563 117.617188 C 76.089844 117.617188 76.082031 117.617188 76.074219 117.617188 C 76.0625 117.617188 76.054688 117.613281 76.046875 117.613281 C 76.035156 117.613281 76.027344 117.613281 76.019531 117.613281 C 76.007813 117.613281 76 117.613281 75.988281 117.613281 C 75.980469 117.609375 75.972656 117.609375 75.960938 117.609375 C 75.953125 117.609375 75.945313 117.609375 75.933594 117.609375 C 75.925781 117.609375 75.917969 117.605469 75.910156 117.605469 L 75.90625 117.605469 C 75.898438 117.605469 75.890625 117.605469 75.882813 117.605469 C 75.871094 117.605469 75.863281 117.605469 75.855469 117.605469 C 75.84375 117.601563 75.835938 117.601563 75.828125 117.601563 C 75.820313 117.601563 75.808594 117.601563 75.800781 117.601563 C 75.792969 117.601563 75.78125 117.597656 75.773438 117.597656 C 75.765625 117.597656 75.757813 117.597656 75.746094 117.597656 C 75.738281 117.597656 75.730469 117.59375 75.71875 117.59375 C 75.710938 117.59375 75.703125 117.59375 75.695313 117.59375 C 75.6875 117.589844 75.675781 117.589844 75.667969 117.589844 C 75.660156 117.589844 75.652344 117.589844 75.640625 117.589844 C 75.636719 117.585938 75.625 117.585938 75.617188 117.585938 C 75.609375 117.585938 75.597656 117.585938 75.589844 117.585938 C 75.582031 117.582031 75.574219 117.582031 75.566406 117.582031 C 75.554688 117.582031 75.546875 117.578125 75.539063 117.578125 C 75.53125 117.578125 75.523438 117.578125 75.511719 117.578125 C 75.503906 117.578125 75.496094 117.574219 75.488281 117.574219 C 75.480469 117.574219 75.472656 117.574219 75.464844 117.574219 C 75.453125 117.570313 75.445313 117.570313 75.4375 117.570313 C 75.429688 117.570313 75.421875 117.570313 75.414063 117.566406 C 75.40625 117.566406 75.398438 117.566406 75.386719 117.566406 C 75.378906 117.566406 75.371094 117.566406 75.363281 117.5625 C 75.355469 117.5625 75.347656 117.5625 75.339844 117.5625 C 75.328125 117.5625 75.324219 117.558594 75.3125 117.558594 C 75.304688 117.558594 75.296875 117.558594 75.289063 117.558594 C 75.28125 117.554688 75.273438 117.554688 75.265625 117.554688 C 75.257813 117.554688 75.25 117.550781 75.242188 117.550781 C 75.234375 117.550781 75.226563 117.550781 75.21875 117.550781 C 75.210938 117.546875 75.203125 117.546875 75.195313 117.546875 C 75.1875 117.546875 75.175781 117.546875 75.171875 117.542969 C 75.164063 117.542969 75.15625 117.542969 75.144531 117.542969 L 75.144531 117.539063 C 75.140625 117.539063 75.132813 117.539063 75.125 117.539063 L 75.121094 117.539063 C 75.117188 117.535156 75.109375 117.535156 75.097656 117.535156 C 75.09375 117.535156 75.085938 117.535156 75.078125 117.535156 C 75.070313 117.53125 75.0625 117.53125 75.054688 117.53125 C 75.046875 117.53125 75.039063 117.527344 75.03125 117.527344 C 75.023438 117.527344 75.015625 117.527344 75.007813 117.527344 C 75 117.523438 74.992188 117.523438 74.988281 117.523438 C 74.980469 117.523438 74.972656 117.523438 74.964844 117.519531 C 74.957031 117.519531 74.949219 117.519531 74.941406 117.519531 C 74.933594 117.515625 74.929688 117.515625 74.921875 117.515625 C 74.914063 117.515625 74.90625 117.515625 74.898438 117.511719 C 74.890625 117.511719 74.886719 117.511719 74.878906 117.511719 C 74.871094 117.511719 74.863281 117.507813 74.855469 117.507813 L 74.734375 117.492188 "/>
<path style=" stroke:none;fill-rule:evenodd;fill:rgb(13.699341%,12.199402%,12.5%);fill-opacity:1;" d="M 69.335938 128.328125 C 68.292969 128.480469 67.300781 128.832031 66.363281 129.164063 C 63.886719 130.039063 61.796875 130.777344 60.179688 127.402344 C 60.160156 127.359375 60.210938 127.3125 60.246094 127.339844 C 62.628906 129.121094 65.207031 128.214844 67.511719 127.402344 C 69.496094 126.703125 71.28125 126.074219 72.589844 127.269531 C 72.605469 127.285156 72.609375 127.320313 72.59375 127.339844 C 72.535156 127.410156 72.105469 127.515625 71.558594 127.644531 C 70.78125 127.832031 69.765625 128.078125 69.351563 128.324219 C 69.351563 128.324219 69.339844 128.328125 69.335938 128.328125 "/>
<path style=" stroke:none;fill-rule:evenodd;fill:rgb(13.699341%,12.199402%,12.5%);fill-opacity:1;" d="M 47.109375 191.84375 L 50.789063 140.175781 C 49.78125 140.214844 48.777344 140.164063 47.800781 140.117188 C 47.785156 140.117188 47.765625 140.113281 47.75 140.113281 C 46.683594 140.0625 45.890625 138.605469 46.351563 137.546875 C 46.820313 136.46875 47.351563 135.359375 47.972656 134.347656 C 48.625 133.277344 49.378906 132.285156 50.261719 131.492188 C 50.652344 131.140625 51.054688 130.90625 51.457031 130.769531 L 51.523438 129.84375 L 33.6875 129.746094 L 33.933594 133.570313 C 35.660156 134.457031 37.160156 135.847656 38.578125 137.15625 L 38.574219 137.15625 C 38.621094 137.203125 38.667969 137.242188 38.710938 137.28125 L 38.714844 137.28125 L 38.710938 137.28125 C 38.738281 137.308594 38.761719 137.328125 38.785156 137.351563 C 39.5625 138.15625 39.480469 139.597656 38.601563 140.058594 C 38.519531 140.101563 38.4375 140.144531 38.351563 140.191406 C 38.167969 140.289063 37.980469 140.386719 37.792969 140.484375 C 37.585938 140.296875 37.328125 140.058594 37.015625 139.773438 L 37.011719 139.777344 C 37.089844 139.84375 37.441406 140.167969 37.789063 140.488281 C 37.65625 140.558594 37.523438 140.628906 37.386719 140.695313 C 37.40625 140.707031 37.429688 140.71875 37.453125 140.730469 C 37.746094 140.878906 37.980469 141.003906 38.175781 141.109375 C 38.484375 141.273438 38.707031 141.394531 38.859375 141.480469 L 38.867188 141.480469 C 39.890625 142.050781 40.136719 143.675781 39.289063 144.363281 C 38.84375 144.730469 38.378906 145.097656 37.921875 145.453125 C 38.84375 145.859375 39.320313 147.246094 38.757813 148.09375 C 38.296875 148.789063 37.304688 150.167969 36.21875 151.21875 C 36 151.433594 35.773438 151.636719 35.539063 151.820313 C 35.398438 151.933594 35.257813 152.039063 35.121094 152.136719 L 35.128906 152.300781 L 35.128906 152.304688 L 35.132813 152.34375 L 35.1875 153.1875 C 35.761719 164.695313 36.933594 180.085938 37.808594 192.675781 C 38.289063 192.628906 38.835938 192.675781 39.457031 192.835938 C 41.640625 193.398438 45.257813 191.546875 47.109375 191.84375 Z M 38.714844 137.28125 C 38.738281 137.304688 38.761719 137.328125 38.785156 137.351563 C 42.148438 140.429688 38.53125 137.113281 38.714844 137.28125 Z M 34.175781 137.335938 L 34.246094 138.449219 C 34.527344 138.324219 34.804688 138.191406 35.085938 138.054688 C 34.785156 137.800781 34.480469 137.558594 34.175781 137.335938 Z M 34.523438 142.804688 L 34.582031 143.742188 C 34.808594 143.582031 35.035156 143.417969 35.261719 143.25 C 35.292969 143.226563 35.324219 143.203125 35.355469 143.179688 C 35.074219 143.050781 34.800781 142.925781 34.523438 142.804688 Z M 37.792969 140.484375 C 37.792969 140.484375 37.792969 140.484375 37.789063 140.488281 C 38.457031 141.097656 39.109375 141.691406 37.792969 140.484375 Z M 51.03125 136.757813 L 51.128906 135.410156 C 50.867188 135.75 50.625 136.109375 50.398438 136.488281 C 50.332031 136.59375 50.269531 136.699219 50.207031 136.804688 C 50.484375 136.796875 50.761719 136.78125 51.03125 136.757813 "/>
<path style=" stroke:none;fill-rule:evenodd;fill:rgb(13.699341%,12.199402%,12.5%);fill-opacity:1;" d="M 40.460938 67.421875 C 36.832031 67.5625 32.980469 68.195313 30 69.332031 C 30.015625 69.671875 30.199219 74.890625 30.324219 78.589844 C 36.234375 77.519531 42.191406 76.671875 48.171875 76.019531 C 49.191406 75.90625 50.210938 75.800781 51.234375 75.699219 C 51.148438 72.902344 51.019531 68.785156 51.015625 68.519531 C 47.96875 67.613281 44.085938 67.28125 40.460938 67.421875 "/>
<path style=" stroke:none;fill-rule:evenodd;fill:rgb(13.699341%,12.199402%,12.5%);fill-opacity:1;" d="M 81.957031 67.398438 C 78.328125 67.398438 74.457031 67.882813 71.441406 68.902344 C 71.445313 69.035156 71.449219 71.761719 71.453125 74.414063 C 74.96875 74.304688 78.46875 74.253906 81.957031 74.253906 C 85.445313 74.253906 88.945313 74.304688 92.460938 74.414063 C 92.464844 71.761719 92.46875 69.035156 92.46875 68.902344 C 89.457031 67.882813 85.585938 67.398438 81.957031 67.398438 "/>
<path style=" stroke:none;fill-rule:evenodd;fill:rgb(13.699341%,12.199402%,12.5%);fill-opacity:1;" d="M 112.847656 65.878906 C 115.980469 65.144531 119.816406 64.921875 123.527344 65.0625 C 127.238281 65.207031 131.050781 65.726563 134.128906 66.703125 C 138.691406 63.714844 139.273438 57.960938 134.578125 55.484375 C 131.09375 54.703125 127.386719 54.105469 123.878906 53.96875 C 120.371094 53.832031 116.636719 54.144531 113.109375 54.65625 C 108.269531 56.761719 108.484375 62.550781 112.847656 65.878906 "/>
<path style=" stroke:none;fill-rule:evenodd;fill:rgb(13.699341%,12.199402%,12.5%);fill-opacity:1;" d="M 123.453125 67.421875 C 127.078125 67.5625 130.929688 68.195313 133.914063 69.332031 C 133.894531 69.671875 133.714844 74.890625 133.589844 78.589844 C 127.679688 77.519531 121.722656 76.671875 115.742188 76.019531 C 114.722656 75.90625 113.699219 75.800781 112.679688 75.699219 C 112.765625 72.902344 112.894531 68.785156 112.898438 68.519531 C 115.945313 67.613281 119.828125 67.28125 123.453125 67.421875 "/>
<path style=" stroke:none;fill-rule:evenodd;fill:rgb(13.699341%,12.199402%,12.5%);fill-opacity:1;" d="M 23.371094 283.511719 L 30.011719 283.511719 L 30.011719 311.523438 C 30.011719 313.75 30.621094 315.546875 31.847656 316.945313 C 33.078125 318.332031 34.757813 319.023438 36.902344 319.023438 C 39.304688 319.023438 41.171875 318.351563 42.503906 316.984375 C 43.84375 315.617188 44.507813 313.757813 44.507813 311.390625 L 44.507813 283.511719 L 51.144531 283.511719 L 51.144531 311.949219 C 51.144531 316.203125 49.855469 319.527344 47.277344 321.933594 C 44.699219 324.339844 41.257813 325.542969 36.953125 325.542969 C 32.617188 325.542969 29.269531 324.371094 26.910156 322.019531 C 24.558594 319.671875 23.371094 316.300781 23.371094 311.917969 Z M 65.433594 290.03125 L 65.433594 299.710938 L 78.578125 299.710938 L 78.578125 305.9375 L 65.433594 305.9375 L 65.433594 324.839844 L 58.796875 324.839844 L 58.796875 283.511719 L 83.433594 283.511719 L 83.433594 290.03125 Z M 95.933594 309.636719 L 95.933594 324.839844 L 89.296875 324.839844 L 89.296875 283.539063 C 93.71875 283.328125 96.308594 283.234375 97.058594 283.234375 C 102.964844 283.234375 107.277344 284.234375 110.011719 286.238281 C 112.738281 288.242188 114.105469 291.359375 114.105469 295.617188 C 114.105469 305.09375 109.054688 309.828125 98.949219 309.828125 C 98.199219 309.828125 97.195313 309.769531 95.933594 309.636719 Z M 95.933594 289.886719 L 95.933594 303.117188 C 97.058594 303.253906 97.945313 303.320313 98.589844 303.320313 C 101.621094 303.320313 103.828125 302.761719 105.230469 301.636719 C 106.621094 300.519531 107.320313 298.699219 107.320313 296.175781 C 107.320313 291.890625 104.191406 289.742188 97.953125 289.742188 C 97.257813 289.742188 96.578125 289.789063 95.933594 289.886719 Z M 126.609375 290.03125 L 126.609375 299.710938 L 138.960938 299.710938 L 138.960938 305.9375 L 126.609375 305.9375 L 126.609375 318.320313 L 143.554688 318.320313 L 143.554688 324.839844 L 119.96875 324.839844 L 119.96875 283.511719 L 143.839844 283.511719 L 143.839844 290.03125 L 126.609375 290.03125 "/>
</g>
</svg>
